REM DIRINDEX 1\2,1\3,1\4,1\5\6,1\5\7,1\8
REM DIRNAME folder01,folder02,folder03,folder04,folder05,folder06,folder07,folder08
TITLE ""
FILE "011 Åy011ÅzUnit1 (0121 prejudice_0132 bribe).mp3" MP3
  TRACK 01 AUDIO
    TITLE "0:"
    INDEX 01 00:00:00
  TRACK 02 AUDIO
    TITLE "2:cjc115_0362"
    INDEX 01 00:00:07
  TRACK 03 AUDIO
    TITLE "0:"
    INDEX 01 00:01:26
  TRACK 04 AUDIO
    TITLE "3:cjc115_0363"
    INDEX 01 00:01:32
  TRACK 05 AUDIO
    TITLE "0:"
    INDEX 01 00:03:47
  TRACK 06 AUDIO
    TITLE "4:cjc115_0364"
    INDEX 01 00:03:55
  TRACK 07 AUDIO
    TITLE "0:"
    INDEX 01 00:08:38
  TRACK 08 AUDIO
    TITLE "2:cjc115_0365"
    INDEX 01 00:09:47
  TRACK 09 AUDIO
    TITLE "0:"
    INDEX 01 00:10:59
  TRACK 10 AUDIO
    TITLE "3:cjc115_0366"
    INDEX 01 00:10:74
  TRACK 11 AUDIO
    TITLE "0:"
    INDEX 01 00:13:26
  TRACK 12 AUDIO
    TITLE "4:cjc115_0367"
    INDEX 01 00:13:33
  TRACK 13 AUDIO
    TITLE "0:"
    INDEX 01 00:17:37
  TRACK 14 AUDIO
    TITLE "2:cjc115_0368"
    INDEX 01 00:18:46
  TRACK 15 AUDIO
    TITLE "0:"
    INDEX 01 00:19:56
  TRACK 16 AUDIO
    TITLE "3:cjc115_0369"
    INDEX 01 00:19:65
  TRACK 17 AUDIO
    TITLE "0:"
    INDEX 01 00:21:66
  TRACK 18 AUDIO
    TITLE "4:cjc115_0370"
    INDEX 01 00:21:74
  TRACK 19 AUDIO
    TITLE "0:"
    INDEX 01 00:25:68
  TRACK 20 AUDIO
    TITLE "2:cjc115_0371"
    INDEX 01 00:27:02
  TRACK 21 AUDIO
    TITLE "0:"
    INDEX 01 00:28:08
  TRACK 22 AUDIO
    TITLE "3:cjc115_0372"
    INDEX 01 00:28:19
  TRACK 23 AUDIO
    TITLE "0:"
    INDEX 01 00:30:14
  TRACK 24 AUDIO
    TITLE "4:cjc115_0373"
    INDEX 01 00:30:20
  TRACK 25 AUDIO
    TITLE "0:"
    INDEX 01 00:34:16
  TRACK 26 AUDIO
    TITLE "2:cjc115_0374"
    INDEX 01 00:35:25
  TRACK 27 AUDIO
    TITLE "0:"
    INDEX 01 00:36:56
  TRACK 28 AUDIO
    TITLE "3:cjc115_0375"
    INDEX 01 00:36:60
  TRACK 29 AUDIO
    TITLE "0:"
    INDEX 01 00:38:22
  TRACK 30 AUDIO
    TITLE "4:cjc115_0376"
    INDEX 01 00:38:41
  TRACK 31 AUDIO
    TITLE "0:"
    INDEX 01 00:44:03
  TRACK 32 AUDIO
    TITLE "2:cjc115_0377"
    INDEX 01 00:45:10
  TRACK 33 AUDIO
    TITLE "0:"
    INDEX 01 00:46:15
  TRACK 34 AUDIO
    TITLE "3:cjc115_0378"
    INDEX 01 00:46:21
  TRACK 35 AUDIO
    TITLE "0:"
    INDEX 01 00:48:32
  TRACK 36 AUDIO
    TITLE "4:cjc115_0379"
    INDEX 01 00:48:38
  TRACK 37 AUDIO
    TITLE "0:"
    INDEX 01 00:52:61
  TRACK 38 AUDIO
    TITLE "2:cjc115_0380"
    INDEX 01 00:53:64
  TRACK 39 AUDIO
    TITLE "0:"
    INDEX 01 00:55:12
  TRACK 40 AUDIO
    TITLE "3:cjc115_0381"
    INDEX 01 00:55:18
  TRACK 41 AUDIO
    TITLE "0:"
    INDEX 01 00:57:13
  TRACK 42 AUDIO
    TITLE "4:cjc115_0382"
    INDEX 01 00:57:35
  TRACK 43 AUDIO
    TITLE "0:"
    INDEX 01 01:00:68
  TRACK 44 AUDIO
    TITLE "2:cjc115_0383"
    INDEX 01 01:01:74
  TRACK 45 AUDIO
    TITLE "0:"
    INDEX 01 01:03:22
  TRACK 46 AUDIO
    TITLE "3:cjc115_0384"
    INDEX 01 01:03:31
  TRACK 47 AUDIO
    TITLE "0:"
    INDEX 01 01:04:58
  TRACK 48 AUDIO
    TITLE "4:cjc115_0385"
    INDEX 01 01:04:66
  TRACK 49 AUDIO
    TITLE "0:"
    INDEX 01 01:10:08
  TRACK 50 AUDIO
    TITLE "2:cjc115_0386"
    INDEX 01 01:11:17
  TRACK 51 AUDIO
    TITLE "0:"
    INDEX 01 01:12:46
  TRACK 52 AUDIO
    TITLE "3:cjc115_0387"
    INDEX 01 01:12:54
  TRACK 53 AUDIO
    TITLE "0:"
    INDEX 01 01:15:21
  TRACK 54 AUDIO
    TITLE "4:cjc115_0388"
    INDEX 01 01:15:29
  TRACK 55 AUDIO
    TITLE "0:"
    INDEX 01 01:18:62
  TRACK 56 AUDIO
    TITLE "2:cjc115_0389"
    INDEX 01 01:19:72
  TRACK 57 AUDIO
    TITLE "0:"
    INDEX 01 01:21:10
  TRACK 58 AUDIO
    TITLE "3:cjc115_0390"
    INDEX 01 01:21:14
  TRACK 59 AUDIO
    TITLE "0:"
    INDEX 01 01:24:18
  TRACK 60 AUDIO
    TITLE "4:cjc115_0391"
    INDEX 01 01:24:28
  TRACK 61 AUDIO
    TITLE "0:"
    INDEX 01 01:28:49
  TRACK 62 AUDIO
    TITLE "2:cjc115_0392"
    INDEX 01 01:29:60
  TRACK 63 AUDIO
    TITLE "0:"
    INDEX 01 01:30:73
  TRACK 64 AUDIO
    TITLE "3:cjc115_0393"
    INDEX 01 01:31:06
  TRACK 65 AUDIO
    TITLE "0:"
    INDEX 01 01:32:19
  TRACK 66 AUDIO
    TITLE "4:cjc115_0394"
    INDEX 01 01:32:43
  TRACK 67 AUDIO
    TITLE "0:"
    INDEX 01 01:36:05
  TRACK 68 AUDIO
    TITLE "2:cjc115_0395"
    INDEX 01 01:37:13
  TRACK 69 AUDIO
    TITLE "0:"
    INDEX 01 01:38:22
  TRACK 70 AUDIO
    TITLE "3:cjc115_0396"
    INDEX 01 01:38:26
  TRACK 71 AUDIO
    TITLE "0:"
    INDEX 01 01:39:23
  TRACK 72 AUDIO
    TITLE "4:cjc115_0397"
    INDEX 01 01:39:31
  TRACK 73 AUDIO
    TITLE "0:"
    INDEX 01 01:42:35
